<svg><defs>
    <g id="icon-alert"><path d="M22 5.72l-4.6-3.86-1.29 1.53 4.6 3.86L22 5.72zM7.88 3.39L6.6 1.86 2 5.71l1.29 1.53 4.59-3.85zM12.5 8H11v6l4.75 2.85.75-1.23-4-2.37V8zM12 4c-4.97 0-9 4.03-9 9s4.02 9 9 9c4.97 0 9-4.03 9-9s-4.03-9-9-9zm0 16c-3.87 0-7-3.13-7-7s3.13-7 7-7 7 3.13 7 7-3.13 7-7 7z"/></g>
    <g id="icon-arrow-back"><path d="M20 11H7.83l5.59-5.59L12 4l-8 8 8 8 1.41-1.41L7.83 13H20v-2z"/></g>
    <g id="icon-lightbulb"><path d="M12,2A7,7 0 0,0 5,9C5,11.38 6.19,13.47 8,14.74V17A1,1 0 0,0 9,18H15A1,1 0 0,0 16,17V14.74C17.81,13.47 19,11.38 19,9A7,7 0 0,0 12,2M9,21A1,1 0 0,0 10,22H14A1,1 0 0,0 15,21V20H9V21Z" /></g>
    <g id="icon-lightbulb-outline"> <path d="M12,2A7,7 0 0,1 19,9C19,11.38 17.81,13.47 16,14.74V17A1,1 0 0,1 15,18H9A1,1 0 0,1 8,17V14.74C6.19,13.47 5,11.38 5,9A7,7 0 0,1 12,2M9,21V20H15V21A1,1 0 0,1 14,22H10A1,1 0 0,1 9,21M12,4A5,5 0 0,0 7,9C7,11.05 8.23,12.81 10,13.58V16H14V13.58C15.77,12.81 17,11.05 17,9A5,5 0 0,0 12,4Z" /></g>
    <g id="icon-shake"><path id="shapePath1" d="M1.47135,8.23494 L5.49313,17.1519 L5.49313,13.9325 L2.90779,8.20073 L5.49313,7.1734 L5.49313,5.3442 L2.14488,6.6745 C1.49987,6.93085 1.19824,7.62953 1.47135,8.23494 M15.8028,4.89718 L8.19724,4.89718 C7.44346,4.89718 6.83255,5.47058 6.83255,6.17809 L6.83255,17.8219 C6.83255,18.5294 7.44346,19.1028 8.19724,19.1028 L15.8028,19.1028 C16.5565,19.1028 17.1675,18.5294 17.1675,17.8219 L17.1675,6.17837 C17.1675,5.47086 16.5565,4.89718 15.8028,4.89718 M13.1727,17.8832 C13.1727,18.142 12.9493,18.3517 12.6735,18.3517 L11.3265,18.3517 C11.0507,18.3517 10.8273,18.142 10.8273,17.8832 L10.8273,17.6674 C10.8273,17.4088 11.0507,17.1988 11.3265,17.1988 L12.6735,17.1988 C12.9493,17.1988 13.1727,17.4086 13.1727,17.6674 L13.1727,17.8832 M15.7287,16.6304 L8.27133,16.6304 L8.27133,6.7101 L15.7287,6.7101 L15.7287,16.6304 M21.8551,6.6745 L18.5069,5.3442 L18.5069,7.1734 L21.0922,8.20073 L18.5069,13.9325 L18.5069,17.1519 L22.5286,8.23494 C22.8018,7.62953 22.5001,6.93085 21.8551,6.6745 Z"/></g>
    <g id="icon-android-tv"><path id="shapePath1" d="M20.1504,4.57893 L3.60658,4.57893 C2.95398,4.57893 2.42487,5.10804 2.42487,5.76064 L2.42487,16.396 C2.42487,17.0486 2.95398,17.5777 3.60658,17.5777 L10.106,17.5777 L10.106,18.2118 C8.37435,18.2995 7.15169,18.5113 7.15169,18.7594 L7.15169,19.3502 C7.15169,19.6769 9.26817,19.9411 11.8785,19.9411 C14.4889,19.9411 16.6054,19.6769 16.6054,19.3502 L16.6054,18.7594 C16.6054,18.5113 15.3827,18.2995 13.651,18.2118 L13.651,17.5777 L20.1504,17.5777 C20.8031,17.5777 21.3321,17.0486 21.3321,16.396 L21.3321,5.76064 C21.3321,5.10804 20.8031,4.57893 20.1504,4.57893 M20.1504,16.2217 C20.1504,16.3175 20.072,16.396 19.9762,16.396 L3.78085,16.396 C3.68505,16.396 3.60658,16.3175 3.60658,16.2217 L3.60658,5.9349 C3.60658,5.83911 3.68505,5.76064 3.78085,5.76064 L19.9762,5.76064 C20.072,5.76064 20.1505,5.83911 20.1505,5.9349 L20.1504,16.2217 Z"/></g>
</defs></svg>
